<svg version="1.2" baseProfile="tiny-ps" xmlns="http://www.w3.org/2000/svg" viewBox="0 0 741 598" width="741" height="598">
	<title>money-pink-svg</title>
	<style>
		tspan { white-space:pre }
		.shp0 { fill: #e6e6e6 } 
		.shp1 { fill: #ffffff } 
		.shp2 { fill: #f25eb0 } 
		.shp3 { fill: #2f2e41 } 
		.shp4 { fill: #cccccc } 
		.shp5 { fill: #3f3d56 } 
	</style>
	<path id="Layer" class="shp0" d="M421.95 528.31C416.83 521.14 409.89 515.89 401.18 513.92C393.58 512.21 385.76 512.5 378.04 512.56L280.34 513.32C271.98 513.38 263.96 520.63 264.34 529.32C264.73 537.93 271.38 545.39 280.34 545.32C308.96 545.1 337.58 544.87 366.19 544.65C372.94 544.6 379.69 544.48 386.44 544.5C387.95 544.51 389.46 544.59 390.98 544.6C391.34 544.61 391.61 544.61 391.8 544.6C391.84 544.61 391.88 544.62 391.94 544.64C392.73 544.86 393.54 545.01 394.34 545.21C394.06 545.22 394.85 545.72 395.25 545.88C395.3 545.99 395.42 546.18 395.62 546.48C395.89 546.99 396.69 548.54 396.73 548.49C397.03 549.25 397.32 550.02 397.59 550.8C397.87 551.57 398.13 552.35 398.38 553.13C398.63 553.92 398.87 554.71 399.09 555.5C399.31 556.29 399.52 557.08 399.71 557.88C401.57 564.93 401.98 566.4 402.25 573.01C402.59 581.37 409.37 589.41 418.25 589.01C426.63 588.64 434.61 581.97 434.25 573.01C433.64 557.92 430.99 540.96 421.95 528.31Z" />
	<path id="Layer" class="shp0" d="M286.09 564.41C284.25 553.29 282.45 542.17 280.58 531.05C278.68 519.78 274.81 509.45 266.03 502.06C263.69 500.08 261.26 498.23 258.82 496.39C257.96 495.75 257.1 495.1 256.25 494.44C256.2 494.4 256.17 494.37 256.13 494.34C256.03 494.26 255.92 494.16 255.77 494.04C252.11 490.94 248.58 487.71 245.22 484.27C242.23 481.22 239.37 478.04 236.64 474.73C235.96 473.9 235.29 473.07 234.62 472.22C234.51 472.08 233.89 471.28 233.49 470.77C233.11 470.25 232.42 469.31 232.31 469.14C231.53 468.05 230.77 466.94 230.02 465.82C228.75 463.91 227.52 461.98 226.33 460.02C225.14 458.06 224 456.07 222.89 454.06C221.79 452.04 220.74 450.01 219.73 447.95C218.72 445.89 217.75 443.81 216.83 441.71C216.47 440.87 216.11 440.03 215.76 439.19C215.67 438.93 215.55 438.6 215.39 438.16C214.65 436.12 213.91 434.09 213.23 432.02C211.79 427.64 210.55 423.2 209.52 418.69C209.01 416.46 208.54 414.22 208.13 411.97C207.92 410.82 207.73 409.66 207.54 408.5C207.51 408.3 207.33 407.05 207.23 406.34C207.15 405.63 207 404.37 206.98 404.18C206.87 403 206.76 401.83 206.67 400.66C206.47 398.02 206.33 395.37 206.26 392.73C206.13 388.02 206.22 383.31 206.51 378.6C206.67 375.96 206.91 373.32 207.2 370.69C207.22 370.53 207.23 370.4 207.25 370.28C207.26 370.16 207.28 370.03 207.31 369.86C207.52 368.41 207.75 366.96 208 365.51C208.24 364.13 208.5 362.76 208.78 361.39C209.05 360.03 209.35 358.66 209.66 357.3C209.97 355.94 210.3 354.59 210.65 353.23C210.99 351.88 211.36 350.54 211.74 349.19C212.47 346.66 213.26 344.14 214.11 341.64C214.48 340.53 214.88 339.43 215.28 338.33C215.25 338.4 216.46 335.31 216.48 335.21C221.27 323.88 229.11 313.55 229.13 300.68C229.13 291.97 221.76 283.62 213.13 284.02C210.99 284.1 208.89 284.59 206.95 285.47C205 286.34 203.24 287.58 201.76 289.12C200.28 290.66 199.11 292.47 198.32 294.45C197.52 296.43 197.12 298.55 197.13 300.68C197.13 300.88 197.12 301.04 197.12 301.2C197.04 301.48 196.98 301.7 196.92 301.9C195.98 303.93 194.83 305.86 193.81 307.85C191 313.27 188.6 318.87 186.32 324.55C185.39 326.87 184.51 329.2 183.69 331.55C182.86 333.91 182.1 336.28 181.39 338.67C180.67 341.06 180.02 343.46 179.42 345.88C178.82 348.3 178.28 350.74 177.79 353.18C176.74 358.53 175.92 363.92 175.36 369.34C174.79 374.77 174.46 380.21 174.38 385.66C174.3 391.11 174.46 396.56 174.87 402C175.28 407.43 175.93 412.85 176.82 418.22C183.03 456.04 203.48 492.23 231.93 516.56C234.39 518.67 236.92 520.71 239.47 522.71C240.53 523.54 241.6 524.35 242.67 525.16C243.17 525.54 245.27 527.19 244.35 526.39C246.33 528.08 247.16 528.94 247.67 530.18C247.75 530.47 247.85 530.86 247.98 531.39C248.34 532.8 248.68 534.2 248.97 535.63C251.44 548.08 253.16 560.74 255.23 573.27C256.65 581.88 267.25 587.48 274.91 584.9C283.83 581.9 287.61 573.64 286.09 564.41Z" />
	<path id="Layer" fill-rule="evenodd" class="shp1" d="M413.87 594.81C410.79 593.54 407.99 591.69 405.63 589.34C403.27 587 401.39 584.21 400.1 581.15C398.81 578.08 398.14 574.78 398.13 571.46L398.13 553.21C379.02 555.35 313.58 554.85 294.83 551.84L294.83 570.73C294.78 577.44 292.08 583.86 287.31 588.59C282.54 593.32 276.1 595.98 269.39 595.98C262.67 595.98 256.23 593.32 251.47 588.59C246.7 583.86 244 577.44 243.95 570.73L243.95 533.64C231.3 526.61 219.64 517.94 209.28 507.84C198.92 497.74 189.95 486.32 182.6 473.86C175.25 461.4 169.59 448.02 165.76 434.06C161.94 420.11 159.98 405.71 159.95 391.25C159.95 341.42 182.53 294.93 221.91 263.71C228.26 258.66 234.99 254.08 242.02 250.02C249.05 245.96 256.38 242.42 263.94 239.45C271.5 236.47 279.26 234.06 287.18 232.24C295.09 230.41 303.13 229.18 311.23 228.54C315.66 228.19 320.11 228.02 324.47 228.02C339.82 228.02 409.09 230.39 426.47 235.39L466.09 196.07C466.38 195.78 466.71 195.53 467.08 195.34C467.44 195.14 467.83 195 468.23 194.92C468.63 194.84 469.05 194.82 469.45 194.86C469.86 194.9 470.26 195 470.64 195.16C471.03 195.31 471.38 195.52 471.7 195.78C472.02 196.04 472.3 196.34 472.53 196.68C472.76 197.03 472.94 197.4 473.06 197.79C473.17 198.19 473.23 198.6 473.23 199.01L473.23 205.26L480.94 197.62C481.23 197.33 481.56 197.08 481.93 196.88C482.29 196.69 482.68 196.55 483.08 196.47C483.48 196.39 483.89 196.37 484.3 196.41C484.71 196.45 485.11 196.55 485.49 196.71C485.87 196.86 486.23 197.07 486.55 197.33C486.87 197.59 487.15 197.89 487.38 198.23C487.61 198.57 487.79 198.95 487.9 199.34C488.02 199.74 488.08 200.15 488.08 200.56L488.08 270.42C507.96 288.35 523.12 310.9 532.2 336.09C541.28 361.27 544.02 388.31 540.15 414.8C536.29 441.29 525.95 466.42 510.05 487.96C494.15 509.5 473.18 526.79 449.01 538.29L449.01 571.46C448.99 574.79 448.32 578.08 447.03 581.15C445.75 584.21 443.87 587 441.51 589.34C439.15 591.69 436.35 593.54 433.27 594.81C430.19 596.07 426.89 596.72 423.57 596.71C420.24 596.72 416.94 596.07 413.87 594.81ZM400.13 550.94L400.13 571.46C400.18 577.64 402.67 583.55 407.06 587.91C411.45 592.26 417.38 594.71 423.57 594.71C429.75 594.71 435.68 592.26 440.07 587.91C444.47 583.55 446.96 577.64 447.01 571.46L447.01 537.03L447.58 536.75C454.32 533.56 460.83 529.9 467.07 525.8C473.31 521.71 479.26 517.19 484.88 512.27C490.49 507.36 495.77 502.07 500.66 496.43C505.54 490.79 510.04 484.83 514.11 478.57C524.46 462.64 531.9 444.99 536.07 426.46C540.24 407.93 541.09 388.8 538.57 369.96C536.05 351.13 530.2 332.9 521.3 316.12C512.4 299.33 500.59 284.26 486.41 271.61L486.08 271.31L486.08 200.56C486.08 200.34 486.05 200.13 485.99 199.93C485.93 199.72 485.84 199.53 485.72 199.35C485.6 199.17 485.46 199.01 485.29 198.88C485.12 198.75 484.94 198.64 484.74 198.56C484.54 198.48 484.33 198.42 484.11 198.4C483.9 198.38 483.68 198.39 483.47 198.43C483.26 198.47 483.06 198.55 482.87 198.65C482.68 198.75 482.51 198.88 482.35 199.03L471.23 210.06L471.23 199.01C471.23 198.79 471.2 198.58 471.14 198.38C471.08 198.17 470.99 197.98 470.87 197.8C470.75 197.62 470.61 197.46 470.44 197.33C470.27 197.2 470.09 197.09 469.89 197.01C469.69 196.93 469.48 196.87 469.26 196.85C469.05 196.83 468.83 196.84 468.62 196.88C468.41 196.92 468.2 197 468.01 197.1C467.82 197.2 467.65 197.33 467.5 197.49L427.02 237.65L426.45 237.47C410.29 232.42 339.94 230.02 324.47 230.02C320.16 230.02 315.76 230.19 311.39 230.53C303.39 231.16 295.45 232.38 287.63 234.19C279.81 235.99 272.14 238.37 264.67 241.31C257.2 244.25 249.97 247.74 243.02 251.75C236.07 255.76 229.43 260.29 223.15 265.28C184.25 296.12 161.95 342.03 161.95 391.25C161.98 405.59 163.93 419.86 167.73 433.68C171.53 447.5 177.16 460.76 184.47 473.09C191.78 485.43 200.7 496.74 211 506.72C221.29 516.69 232.87 525.25 245.43 532.17L245.95 532.46L245.95 570.73C246 576.91 248.49 582.82 252.88 587.18C257.27 591.53 263.2 593.97 269.39 593.97C275.57 593.97 281.5 591.53 285.89 587.18C290.28 582.82 292.78 576.91 292.83 570.73L292.83 549.44L294.01 549.66C310.87 552.84 381.84 553.34 399 551.09L400.13 550.94Z" />
	<path id="Layer" class="shp2" d="M288 119.12L177.26 152.4C173.74 153.46 170.78 155.88 169.04 159.12C167.3 162.36 166.91 166.16 167.97 169.68C169.03 173.21 171.45 176.17 174.68 177.91C177.92 179.65 181.72 180.04 185.25 178.99L282.16 149.86L284.19 149.25C284.29 146.64 284.54 144.05 284.95 141.47C285.35 138.9 285.9 136.35 286.6 133.84C287.29 131.32 288.14 128.86 289.12 126.44C290.1 124.03 291.22 121.67 292.48 119.39C292.32 119.32 292.16 119.25 292 119.19C291.83 119.14 291.67 119.09 291.5 119.04C291.33 119 291.16 118.96 290.99 118.93C290.82 118.9 290.65 118.88 290.48 118.87C290.27 118.85 290.06 118.84 289.85 118.84C289.64 118.84 289.43 118.85 289.23 118.87C289.02 118.89 288.81 118.92 288.61 118.96C288.4 119 288.2 119.06 288 119.12Z" />
	<path id="Layer" class="shp3" d="M183.33 186.08C182.6 186.08 181.88 185.97 181.18 185.74C180.49 185.51 179.83 185.18 179.24 184.75C178.65 184.32 178.13 183.81 177.69 183.22C177.26 182.63 176.93 181.97 176.69 181.28L169.77 160.39C169.48 159.51 169.37 158.59 169.43 157.68C169.5 156.76 169.75 155.86 170.16 155.04C170.57 154.22 171.14 153.49 171.84 152.89C172.53 152.29 173.34 151.83 174.21 151.54L264.34 121.67C265.22 121.38 266.14 121.26 267.05 121.33C267.97 121.4 268.87 121.64 269.69 122.06C270.51 122.47 271.24 123.04 271.84 123.74C272.44 124.43 272.9 125.24 273.19 126.11L280.12 147.01C280.4 147.86 280.52 148.76 280.46 149.65C280.41 150.55 280.18 151.43 279.79 152.24C279.41 153.05 278.87 153.77 278.2 154.38C277.54 154.98 276.76 155.45 275.92 155.77C275.84 155.8 275.76 155.83 275.67 155.85L185.54 185.72C185.36 185.78 185.18 185.83 185 185.88C184.82 185.92 184.64 185.96 184.45 185.99C184.27 186.02 184.08 186.04 183.89 186.06C183.71 186.08 183.52 186.08 183.33 186.08Z" />
	<path id="Layer" fill-rule="evenodd" class="shp1" d="M352.13 82.01C380.44 82.01 405.96 99.06 416.8 125.22C427.63 151.38 421.65 181.49 401.63 201.51C381.61 221.52 351.5 227.51 325.34 216.68C299.18 205.84 282.13 180.32 282.13 152.01C282.13 151.29 282.14 150.57 282.16 149.86C282.44 140.85 284.45 131.98 288.1 123.74C291.74 115.5 296.93 108.04 303.4 101.76C309.87 95.49 317.49 90.53 325.84 87.14C334.19 83.75 343.12 82.01 352.13 82.01ZM352.13 220.01C379.38 220.01 404 203.74 414.68 178.67C425.37 153.6 420.05 124.57 401.18 104.92C382.3 85.26 353.52 78.77 328.03 88.42C302.55 98.08 285.29 122.02 284.19 149.25C284.15 150.16 284.13 151.08 284.13 152.01C284.14 160.93 285.9 169.77 289.32 178.02C292.74 186.26 297.75 193.76 304.07 200.07C310.38 206.38 317.87 211.39 326.12 214.81C334.36 218.23 343.2 220 352.13 220.01Z" />
	<path id="Layer" class="shp0" d="M411.13 152.01C411.13 167.66 404.91 182.66 393.85 193.73C382.78 204.79 367.78 211.01 352.13 211.01C336.48 211.01 321.47 204.79 310.41 193.73C299.34 182.66 293.13 167.66 293.13 152.01C293.13 150.14 293.22 148.3 293.39 146.48C294.81 131.38 301.99 117.4 313.45 107.46C324.9 97.51 339.74 92.36 354.9 93.07C370.05 93.78 384.34 100.3 394.81 111.28C405.29 122.25 411.13 136.84 411.13 152.01L411.13 152.01Z" />
	<path id="Layer" fill-rule="evenodd" class="shp2" d="M370.72 157.65C371.01 158.25 371.25 158.88 371.44 159.52C371.63 160.16 371.76 160.81 371.84 161.48C371.92 162.14 371.95 162.81 371.92 163.48C371.94 164.42 371.86 165.35 371.69 166.28C371.51 167.2 371.25 168.1 370.89 168.97C370.53 169.83 370.08 170.66 369.55 171.44C369.02 172.21 368.41 172.93 367.74 173.58C366.97 174.29 366.15 174.94 365.28 175.53C364.41 176.11 363.5 176.62 362.55 177.06C361.6 177.49 360.61 177.85 359.61 178.13C358.6 178.41 357.57 178.6 356.53 178.72L356.53 186.94L348.98 186.94L348.98 178.87C348.19 178.81 347.41 178.73 346.63 178.63C345.85 178.52 345.08 178.39 344.31 178.23C343.54 178.07 342.77 177.88 342.02 177.67C341.26 177.45 340.51 177.21 339.77 176.95C339.09 176.71 338.43 176.44 337.78 176.14C337.12 175.84 336.49 175.52 335.86 175.16C335.24 174.81 334.63 174.43 334.04 174.02C333.45 173.62 332.88 173.18 332.33 172.73L335.59 165.77C336.57 166.57 337.61 167.29 338.71 167.94C339.8 168.58 340.94 169.14 342.12 169.61C343.3 170.08 344.51 170.46 345.74 170.74C346.98 171.03 348.23 171.22 349.5 171.32L349.5 155.93C348.78 155.76 348.07 155.57 347.37 155.37C346.66 155.17 345.96 154.95 345.26 154.72C344.56 154.49 343.87 154.24 343.18 153.98C342.49 153.72 341.81 153.45 341.14 153.16C340.58 152.91 340.03 152.63 339.51 152.31C338.98 151.99 338.48 151.64 338 151.26C337.52 150.88 337.06 150.47 336.64 150.03C336.21 149.59 335.81 149.13 335.44 148.64C335.04 148.07 334.69 147.48 334.38 146.86C334.08 146.24 333.83 145.59 333.64 144.93C333.44 144.27 333.31 143.59 333.22 142.9C333.14 142.22 333.12 141.53 333.15 140.84C333.14 140.2 333.18 139.56 333.26 138.93C333.34 138.3 333.46 137.67 333.63 137.05C333.8 136.44 334.01 135.83 334.26 135.25C334.51 134.66 334.81 134.09 335.14 133.55C335.48 132.99 335.86 132.45 336.28 131.93C336.69 131.42 337.13 130.93 337.6 130.47C338.07 130.01 338.57 129.58 339.09 129.17C339.61 128.77 340.16 128.4 340.73 128.07C341.36 127.69 342 127.35 342.67 127.05C343.33 126.75 344.01 126.48 344.71 126.24C345.4 126.01 346.1 125.82 346.82 125.66C347.53 125.5 348.25 125.38 348.98 125.3L348.98 117.08L356.53 117.08L356.53 125.22C357.22 125.3 357.91 125.4 358.59 125.53C359.28 125.66 359.96 125.81 360.63 125.98C361.31 126.16 361.97 126.35 362.64 126.57C363.3 126.79 363.95 127.03 364.6 127.29C365.18 127.52 365.75 127.78 366.31 128.06C366.87 128.34 367.42 128.65 367.95 128.97C368.48 129.3 369 129.66 369.5 130.03C370 130.4 370.49 130.8 370.96 131.22L367.7 138.17C366.87 137.46 366 136.82 365.08 136.24C364.17 135.65 363.21 135.13 362.23 134.68C361.24 134.23 360.22 133.85 359.18 133.54C358.14 133.24 357.08 133 356.01 132.84L356.01 148.9C356.71 149.07 357.41 149.25 358.1 149.45C358.8 149.64 359.49 149.85 360.17 150.08C360.86 150.31 361.54 150.54 362.22 150.8C362.89 151.05 363.56 151.32 364.23 151.6C364.76 151.84 365.29 152.11 365.79 152.41C366.29 152.72 366.77 153.05 367.24 153.42C367.7 153.78 368.13 154.18 368.55 154.6C368.96 155.01 369.34 155.46 369.7 155.93C370.09 156.47 370.43 157.05 370.72 157.65ZM349.5 132.92C349.03 133 348.57 133.11 348.11 133.26C347.66 133.42 347.22 133.6 346.8 133.82C346.38 134.04 345.97 134.29 345.59 134.58C345.2 134.86 344.84 135.17 344.51 135.51C344.21 135.83 343.94 136.18 343.7 136.55C343.47 136.92 343.28 137.32 343.12 137.73C342.96 138.14 342.85 138.57 342.78 139C342.7 139.44 342.67 139.88 342.69 140.32C342.67 140.71 342.7 141.1 342.77 141.49C342.84 141.87 342.96 142.25 343.11 142.61C343.26 142.97 343.46 143.31 343.68 143.63C343.91 143.95 344.18 144.24 344.47 144.5C344.84 144.8 345.22 145.09 345.62 145.36C346.02 145.62 346.43 145.87 346.85 146.1C347.27 146.32 347.7 146.53 348.15 146.71C348.59 146.9 349.04 147.06 349.5 147.2L349.5 132.92ZM361.48 167.44C361.69 167.07 361.87 166.68 362.01 166.28C362.15 165.88 362.25 165.47 362.31 165.05C362.37 164.63 362.39 164.2 362.38 163.78C362.39 163.43 362.36 163.08 362.3 162.74C362.23 162.39 362.13 162.06 361.99 161.74C361.84 161.42 361.67 161.12 361.46 160.84C361.25 160.56 361.01 160.3 360.75 160.08C360.4 159.8 360.03 159.55 359.66 159.31C359.28 159.07 358.9 158.85 358.5 158.65C358.1 158.45 357.69 158.28 357.28 158.12C356.86 157.96 356.44 157.82 356.01 157.71L356.01 170.95C356.45 170.87 356.9 170.77 357.33 170.62C357.76 170.48 358.17 170.3 358.58 170.09C358.98 169.88 359.36 169.64 359.73 169.37C360.09 169.1 360.43 168.8 360.75 168.48C361.02 168.15 361.27 167.81 361.48 167.44Z" />
	<path id="Layer" class="shp3" d="M186.55 270.77C185.78 270.77 185.02 270.64 184.29 270.4C183.56 270.15 182.88 269.78 182.27 269.31C181.67 268.85 181.14 268.28 180.71 267.64C180.29 267 179.97 266.3 179.77 265.56L176 251.29C175.77 250.4 175.71 249.47 175.83 248.56C175.96 247.65 176.26 246.78 176.72 245.98C177.18 245.19 177.8 244.49 178.53 243.94C179.26 243.38 180.09 242.97 180.98 242.73L299.92 211.31C300.81 211.07 301.73 211.02 302.64 211.14C303.55 211.27 304.43 211.57 305.22 212.03C306.02 212.5 306.71 213.11 307.27 213.84C307.82 214.57 308.23 215.4 308.47 216.29L311.66 228.38L311.06 228.43C303.49 229.02 295.96 230.14 288.54 231.8C281.12 233.46 273.83 235.64 266.73 238.34C259.62 241.03 252.71 244.23 246.06 247.9C239.41 251.57 233.02 255.72 226.96 260.3L226.78 260.38L188.32 270.54C188.18 270.58 188.03 270.61 187.89 270.64C187.74 270.67 187.59 270.69 187.44 270.71C187.29 270.73 187.14 270.75 187 270.76C186.85 270.77 186.7 270.77 186.55 270.77Z" />
	<path id="Layer" class="shp1" d="M166.85 341.26C163.37 340.74 159.93 340.04 156.53 339.16C153.13 338.28 149.78 337.21 146.49 335.97C143.2 334.73 139.99 333.31 136.85 331.72C133.72 330.14 130.67 328.38 127.73 326.47C126.26 325.52 124.83 324.53 123.42 323.5C122.01 322.47 120.63 321.4 119.28 320.3C117.93 319.19 116.61 318.05 115.32 316.87C114.03 315.7 112.77 314.48 111.55 313.24C106.72 308.31 102.11 302.72 99.71 296.16C99.15 294.66 98.72 293.11 98.45 291.53C98.17 289.95 98.05 288.35 98.07 286.74C98.1 285.14 98.28 283.54 98.61 281.97C98.94 280.4 99.42 278.87 100.05 277.39C100.66 275.92 101.41 274.52 102.3 273.19C103.19 271.87 104.2 270.64 105.33 269.52C106.45 268.4 107.69 267.39 109.01 266.5C110.34 265.62 111.74 264.87 113.21 264.26C119.2 261.87 126.44 261.62 132.27 264.24C132.96 264.54 133.63 264.89 134.27 265.28C134.92 265.67 135.54 266.1 136.12 266.57C136.71 267.05 137.27 267.56 137.79 268.1C138.31 268.65 138.79 269.23 139.23 269.84C139.44 270.12 139.63 270.41 139.81 270.71C139.99 271.01 140.16 271.32 140.31 271.64C140.46 271.95 140.6 272.27 140.72 272.6C140.85 272.93 140.95 273.26 141.04 273.6C141.13 273.9 141.19 274.21 141.24 274.53C141.29 274.84 141.32 275.16 141.32 275.47C141.33 275.79 141.32 276.11 141.29 276.42C141.26 276.74 141.2 277.05 141.13 277.36C140.96 277.98 140.73 278.57 140.43 279.14C140.13 279.71 139.78 280.24 139.37 280.74C138.96 281.23 138.49 281.68 137.99 282.07C137.48 282.46 136.94 282.8 136.36 283.08C135.73 283.41 135.08 283.7 134.41 283.97C133.75 284.24 133.08 284.48 132.4 284.69C131.71 284.9 131.02 285.07 130.32 285.22C129.62 285.37 128.92 285.48 128.21 285.57C125.35 285.96 121.24 286.31 118.94 284.02C118.82 283.9 118.71 283.78 118.61 283.66C118.5 283.53 118.4 283.4 118.31 283.27C118.22 283.13 118.13 282.99 118.06 282.85C117.98 282.71 117.91 282.56 117.85 282.41C117.8 282.29 117.77 282.17 117.74 282.05C117.71 281.93 117.69 281.81 117.67 281.69C117.66 281.56 117.65 281.44 117.65 281.32C117.65 281.19 117.66 281.07 117.68 280.95C117.64 281.17 117.81 280.48 117.8 280.5C117.77 280.6 117.61 280.85 117.83 280.47C117.85 280.44 117.87 280.41 117.89 280.38C117.91 280.35 117.93 280.32 117.95 280.29C117.96 280.26 117.98 280.23 118 280.2C118.03 280.17 118.05 280.14 118.07 280.11C117.99 280.21 117.82 280.37 118.12 280.09C118.18 280.02 118.25 279.96 118.32 279.9C118.39 279.84 118.46 279.79 118.54 279.74C118.62 279.7 118.7 279.65 118.78 279.62C118.86 279.58 118.95 279.55 119.04 279.53C119.18 279.48 119.32 279.45 119.45 279.41C119.81 279.32 119.1 279.42 119.46 279.41C119.6 279.4 119.74 279.41 119.88 279.4C120.24 279.39 119.53 279.3 119.87 279.39C120 279.42 120.13 279.46 120.26 279.5C120.55 279.59 120.06 279.29 120.26 279.51C120.48 279.77 120.02 279.26 120.28 279.51C120.31 279.54 120.34 279.57 120.37 279.6C120.4 279.64 120.43 279.67 120.46 279.7C120.49 279.73 120.52 279.77 120.55 279.8C120.58 279.84 120.61 279.87 120.63 279.9C120.85 280.12 121.11 280.29 121.39 280.41C121.68 280.52 121.98 280.58 122.29 280.58C122.6 280.58 122.9 280.52 123.19 280.41C123.47 280.29 123.73 280.12 123.95 279.9C124.16 279.68 124.33 279.42 124.44 279.14C124.55 278.86 124.61 278.55 124.61 278.25C124.61 277.94 124.55 277.64 124.44 277.35C124.33 277.07 124.16 276.81 123.95 276.59C121.64 273.72 117.07 274.43 114.73 276.85C111.75 279.94 112.93 284.84 115.83 287.53C119.12 290.58 123.77 290.79 127.99 290.28C128.88 290.2 129.77 290.07 130.65 289.91C131.52 289.74 132.4 289.54 133.26 289.29C134.12 289.05 134.97 288.77 135.8 288.45C136.64 288.13 137.46 287.77 138.26 287.38C139.05 286.99 139.81 286.53 140.51 286C141.22 285.48 141.88 284.89 142.48 284.24C143.08 283.59 143.61 282.89 144.08 282.14C144.56 281.4 144.96 280.61 145.28 279.79C145.58 278.91 145.78 278 145.89 277.08C146 276.15 146 275.22 145.91 274.29C145.82 273.37 145.63 272.46 145.35 271.57C145.07 270.68 144.69 269.83 144.23 269.02C140.5 262.01 132.78 258.42 125.14 257.79C123.18 257.64 121.21 257.68 119.26 257.92C117.31 258.15 115.38 258.58 113.52 259.19C111.65 259.8 109.85 260.6 108.13 261.57C106.42 262.54 104.81 263.67 103.32 264.96C101.9 266.24 100.61 267.65 99.45 269.17C98.3 270.7 97.29 272.33 96.45 274.04C95.6 275.76 94.92 277.55 94.42 279.39C93.91 281.24 93.58 283.13 93.44 285.03C92.77 293.03 95.87 300.79 100.4 307.25C101.58 308.88 102.82 310.48 104.11 312.03C105.41 313.57 106.76 315.07 108.16 316.53C109.57 317.98 111.02 319.38 112.52 320.72C114.03 322.07 115.58 323.36 117.17 324.6C120.29 327.08 123.54 329.39 126.92 331.49C130.3 333.6 133.8 335.5 137.4 337.2C141 338.9 144.7 340.39 148.47 341.66C152.25 342.92 156.09 343.97 159.99 344.79C161.85 345.18 163.72 345.5 165.6 345.78C165.9 345.85 166.21 345.87 166.51 345.82C166.81 345.78 167.1 345.68 167.37 345.53C167.63 345.38 167.87 345.18 168.06 344.94C168.25 344.71 168.39 344.43 168.48 344.14C168.56 343.84 168.59 343.54 168.55 343.23C168.51 342.93 168.41 342.63 168.26 342.36C168.11 342.1 167.9 341.86 167.66 341.67C167.42 341.48 167.14 341.34 166.85 341.26L166.85 341.26Z" />
	<path id="Layer" class="shp4" d="M390.23 239.38C369.79 239.09 349.41 239.61 329.1 240.94C322.16 241.39 316.15 243.85 316.15 247.97C316.15 251.42 322.11 255.46 329.1 255C349.4 253.68 369.78 253.16 390.23 253.45C406.91 253.68 406.9 239.62 390.23 239.38Z" />
	<path id="Layer" fill-rule="evenodd" class="shp5" d="M360.02 252.75C357.81 252.75 305.91 252.67 305.91 245.5C305.91 238.33 357.81 238.25 360.02 238.25C362.23 238.25 414.13 238.33 414.13 245.5C414.13 252.67 362.23 252.75 360.02 252.75ZM307.94 245.5C307.94 245.5 307.94 245.5 307.94 245.5C307.94 245.5 307.94 245.5 307.94 245.5L307.94 245.5ZM360.02 250.75C391.6 250.75 410.68 247.67 412.1 245.5C410.68 243.33 391.6 240.25 360.02 240.25C328.44 240.25 309.36 243.33 307.94 245.5C309.36 247.67 328.44 250.75 360.02 250.75Z" />
	<path id="Layer" class="shp1" d="M524.67 441.2C536.16 440.88 550.46 440.48 561.47 432.44C563.11 431.19 564.6 429.77 565.93 428.21C567.26 426.64 568.41 424.93 569.37 423.11C570.33 421.3 571.08 419.38 571.63 417.4C572.17 415.42 572.49 413.38 572.59 411.33C572.82 404.98 570.52 399.43 566.13 395.72C560.38 390.86 551.98 389.72 542.92 392.38L552.3 323.83L545.42 322.89L534.39 403.47L540.14 400.83C546.81 397.78 555.96 396.22 561.64 401.03C562.34 401.65 562.96 402.36 563.5 403.12C564.03 403.89 564.48 404.72 564.82 405.59C565.17 406.46 565.41 407.36 565.55 408.29C565.69 409.22 565.72 410.15 565.65 411.09C565.57 412.62 565.32 414.13 564.91 415.6C564.5 417.08 563.94 418.5 563.23 419.86C562.51 421.21 561.66 422.48 560.68 423.65C559.69 424.83 558.58 425.89 557.37 426.82C548.8 433.08 537.41 433.89 524.48 434.25L524.67 441.2Z" />
	<path id="Layer" class="shp5" d="M468.2 329.74L505.63 329.74L505.63 336.69L468.2 336.69L468.2 329.74Z" />
	<path id="Layer" class="shp3" d="M203.49 302.74C202.66 302.73 201.84 302.59 201.06 302.3C200.29 302.01 199.57 301.59 198.94 301.05C198.32 300.51 197.79 299.87 197.39 299.15C196.98 298.42 196.71 297.64 196.58 296.82L194.3 282.24C194.16 281.33 194.19 280.4 194.41 279.51C194.63 278.62 195.02 277.78 195.56 277.03C196.1 276.29 196.78 275.66 197.57 275.18C198.35 274.7 199.22 274.38 200.13 274.24L321.66 255.2C322.57 255.06 323.49 255.09 324.39 255.31C325.28 255.53 326.12 255.92 326.87 256.46C327.61 257 328.24 257.68 328.72 258.47C329.2 259.25 329.52 260.12 329.66 261.03L331.94 275.61C332.09 276.52 332.05 277.45 331.83 278.34C331.61 279.23 331.22 280.07 330.68 280.82C330.14 281.56 329.46 282.19 328.67 282.67C327.89 283.15 327.02 283.47 326.11 283.61L204.58 302.65C204.49 302.67 204.4 302.68 204.31 302.69C204.22 302.7 204.13 302.71 204.03 302.72C203.94 302.72 203.85 302.73 203.76 302.73C203.67 302.74 203.58 302.74 203.49 302.74L203.49 302.74Z" />
	<path id="Layer" class="shp2" d="M153.19 131.85C124.99 131.85 102.19 109.06 102.19 80.85C102.19 52.65 124.99 29.85 153.19 29.85C181.39 29.85 204.19 52.65 204.19 80.85C204.19 109.06 181.39 131.85 153.19 131.85Z" />
	<path id="Layer" class="shp3" d="M182.06 94.05C182.47 93.91 182.87 93.75 183.26 93.56C183.65 93.38 184.02 93.17 184.39 92.95C184.76 92.72 185.11 92.48 185.45 92.21C185.79 91.95 186.12 91.67 186.43 91.37C186.84 90.95 187.21 90.48 187.52 89.98C187.83 89.48 188.08 88.94 188.28 88.38C188.47 87.82 188.6 87.25 188.67 86.66C188.74 86.07 188.75 85.48 188.69 84.89C188.65 84.47 188.57 84.06 188.44 83.66C188.31 83.26 188.14 82.88 187.92 82.52C187.7 82.16 187.44 81.82 187.15 81.52C186.86 81.22 186.53 80.95 186.17 80.73C184.33 79.59 181.89 79.64 179.43 80.78L179.14 60.87L177.14 60.9L177.48 84.3L179 83.3C180.76 82.15 183.3 81.31 185.13 82.43C185.35 82.58 185.56 82.75 185.74 82.95C185.93 83.14 186.09 83.36 186.23 83.59C186.36 83.82 186.47 84.07 186.55 84.33C186.63 84.59 186.68 84.85 186.7 85.12C186.74 85.56 186.74 86 186.68 86.44C186.63 86.87 186.53 87.3 186.39 87.72C186.24 88.14 186.06 88.54 185.83 88.91C185.6 89.29 185.33 89.64 185.02 89.95C182.86 92.11 179.65 92.83 175.98 93.49L176.34 95.45C176.82 95.38 177.31 95.29 177.79 95.2C178.27 95.1 178.75 95 179.23 94.88C179.71 94.76 180.19 94.64 180.66 94.5C181.13 94.36 181.6 94.21 182.06 94.05L182.06 94.05Z" />
	<path id="Layer" class="shp3" d="M189.09 61.08L199.74 59.47L200.04 61.45L189.39 63.06L189.09 61.08Z" />
	<path id="Layer" class="shp3" d="M155.47 66.17L166.12 64.56L166.42 66.54L155.77 68.15L155.47 66.17Z" />
	<path id="Layer" class="shp3" d="M186.89 301.85C185.98 301.84 185.07 301.7 184.2 301.43C183.33 301.16 182.51 300.75 181.76 300.23C181.01 299.71 180.35 299.08 179.79 298.36C179.23 297.64 178.78 296.84 178.46 295.99L143.29 201.82C141.17 196.1 140.18 190.02 140.4 183.92C140.62 177.83 142.04 171.83 144.57 166.28C147.1 160.73 150.7 155.73 155.17 151.57C159.63 147.4 164.87 144.16 170.58 142.02L199.17 131.34C199.72 131.14 200.29 130.98 200.87 130.89C201.46 130.79 202.04 130.76 202.63 130.78C203.22 130.8 203.81 130.87 204.38 131.01C204.95 131.15 205.51 131.34 206.05 131.58C206.58 131.82 207.09 132.11 207.57 132.45C208.05 132.79 208.49 133.18 208.89 133.6C209.29 134.03 209.65 134.5 209.95 134.99C210.26 135.49 210.52 136.02 210.72 136.57L275.86 259.55C276.28 260.66 276.48 261.84 276.45 263.03C276.41 264.22 276.14 265.38 275.65 266.46C275.16 267.55 274.47 268.52 273.6 269.33C272.73 270.14 271.72 270.77 270.6 271.19L190.04 301.27C189.79 301.37 189.53 301.45 189.27 301.52C189.02 301.59 188.75 301.65 188.49 301.7C188.23 301.75 187.96 301.79 187.69 301.81C187.43 301.83 187.16 301.85 186.89 301.85Z" />
	<path id="Layer" class="shp0" d="M190.5 134.58L255.13 221.01L211.39 135.49C211.03 134.49 210.48 133.57 209.76 132.79C209.05 132.01 208.18 131.37 207.22 130.92C206.26 130.47 205.22 130.22 204.16 130.17C203.1 130.12 202.04 130.28 201.04 130.64L190.5 134.58Z" />
	<path id="Layer" class="shp2" d="M292.83 200.22L177.43 192.78C173.76 192.55 170.33 190.86 167.9 188.1C165.47 185.33 164.24 181.72 164.47 178.04C164.71 174.37 166.4 170.94 169.16 168.51C171.93 166.08 175.54 164.85 179.22 165.08L294.61 172.52C295.46 172.57 296.3 172.79 297.06 173.17C297.83 173.55 298.51 174.07 299.08 174.71C299.64 175.35 300.07 176.1 300.35 176.91C300.62 177.71 300.74 178.57 300.68 179.42L299.73 194.15C299.68 195 299.46 195.83 299.08 196.6C298.7 197.37 298.18 198.05 297.54 198.61C296.9 199.18 296.15 199.61 295.34 199.88C294.53 200.16 293.68 200.27 292.83 200.22L292.83 200.22Z" />
	<path id="Layer" class="shp3" d="M261.99 204.98C261.84 204.98 261.69 204.98 261.53 204.97L261.53 204.97L166.78 198.86C165.86 198.81 164.96 198.57 164.14 198.16C163.31 197.76 162.58 197.19 161.97 196.5C161.36 195.81 160.9 195.01 160.6 194.14C160.31 193.27 160.18 192.35 160.24 191.43L161.86 166.27C161.92 165.35 162.16 164.46 162.57 163.63C162.97 162.81 163.54 162.07 164.23 161.46C164.92 160.86 165.72 160.39 166.59 160.1C167.46 159.8 168.38 159.68 169.3 159.74L264.05 165.84C264.97 165.9 265.87 166.14 266.69 166.55C267.52 166.95 268.25 167.52 268.86 168.21C269.47 168.9 269.93 169.7 270.23 170.57C270.53 171.44 270.65 172.36 270.59 173.27L268.97 198.43C268.93 199.1 268.79 199.76 268.55 200.39C268.32 201.03 268 201.62 267.6 202.16C267.2 202.7 266.72 203.18 266.18 203.58C265.65 203.98 265.05 204.31 264.42 204.54C264.23 204.62 264.03 204.68 263.83 204.73C263.63 204.79 263.43 204.84 263.23 204.87C263.02 204.91 262.82 204.94 262.61 204.96C262.41 204.97 262.2 204.98 261.99 204.98Z" />
	<path id="Layer" class="shp3" d="M152.6 46.94C159.31 41.17 168.53 46.33 176.22 45.43C183.58 44.56 189.4 37.96 190.88 30.95C192.61 22.76 188.36 14.56 182.1 9.46C175.25 3.87 166.15 2.27 157.53 3.3C147.66 4.49 138.62 9.09 130.52 14.66C128.56 15.96 126.65 17.32 124.77 18.73C122.89 20.14 121.06 21.61 119.27 23.12C117.48 24.64 115.73 26.21 114.03 27.83C112.33 29.45 110.68 31.12 109.07 32.83C103.32 39.18 98.45 46.75 96.89 55.3C95.48 63.07 96.56 71.67 101.15 78.25C101.76 79.09 102.42 79.89 103.12 80.65C103.83 81.4 104.59 82.11 105.39 82.77C106.18 83.43 107.02 84.03 107.9 84.58C108.78 85.13 109.69 85.63 110.63 86.06C114.56 87.99 118.76 89.37 122.58 91.56C128.35 94.87 133.95 101.72 132.15 108.85C132.05 109.24 131.93 109.62 131.79 109.99C131.64 110.37 131.48 110.73 131.29 111.08C131.1 111.44 130.89 111.78 130.66 112.1C130.44 112.43 130.19 112.75 129.92 113.04C128.63 114.47 126.3 112.58 127.59 111.14C129.87 108.62 129.78 105.26 128.57 102.24C128.21 101.4 127.78 100.59 127.29 99.82C126.8 99.06 126.24 98.33 125.63 97.65C125.01 96.98 124.34 96.35 123.62 95.79C122.9 95.23 122.14 94.73 121.33 94.29C117.34 92.01 112.93 90.6 108.84 88.52C107.86 88.05 106.92 87.52 106.01 86.93C105.1 86.34 104.22 85.7 103.39 85.01C102.55 84.32 101.76 83.58 101.02 82.79C100.27 82.01 99.57 81.18 98.93 80.3C94.03 73.5 92.56 64.64 93.68 56.44C94.88 47.58 99.43 39.52 105.15 32.76C111.36 25.41 119 19.19 126.8 13.6C135.17 7.61 144.42 2.54 154.65 0.7C163.52 -0.89 173.13 0.09 180.89 4.93C188.13 9.44 193.68 17.2 194.23 25.87C194.33 27.84 194.17 29.81 193.75 31.73C193.33 33.65 192.66 35.51 191.75 37.25C190.84 39 189.71 40.61 188.38 42.06C187.04 43.51 185.52 44.77 183.86 45.82C183.01 46.32 182.12 46.77 181.2 47.14C180.28 47.51 179.33 47.81 178.36 48.03C177.39 48.26 176.41 48.41 175.42 48.48C174.43 48.55 173.44 48.54 172.45 48.46C168.19 48.19 163.92 46.88 159.63 47.24C159.15 47.27 158.67 47.34 158.2 47.45C157.73 47.55 157.27 47.7 156.82 47.88C156.38 48.06 155.95 48.27 155.53 48.53C155.12 48.78 154.73 49.06 154.36 49.37C152.9 50.63 151.15 48.19 152.6 46.94L152.6 46.94Z" />
	<path id="Layer" class="shp1" d="M739.48 597.18L1.19 597.18C0.88 597.17 0.57 597.05 0.35 596.83C0.13 596.6 0 596.3 0 595.98C0 595.67 0.13 595.37 0.35 595.14C0.57 594.92 0.88 594.79 1.19 594.79L739.48 594.79C739.8 594.79 740.1 594.92 740.33 595.14C740.55 595.37 740.68 595.67 740.68 595.98C740.68 596.3 740.55 596.6 740.33 596.83C740.1 597.05 739.8 597.18 739.48 597.18L739.48 597.18Z" />
</svg>